<svg viewBox="0 0 100.116 25.217" overflow="visible" id="svg-1187867664_5074"><path d="M 7.172 20.115 L 7.136 20.079 C 2.99 15.732 3.02 8.717 7.208 4.408 C 9.218 2.34 11.939 1.185 14.771 1.198 C 17.603 1.212 20.314 2.393 22.305 4.48 L 22.339 4.517 C 22.434 4.616 22.434 4.774 22.339 4.872 C 22.294 4.92 22.232 4.946 22.168 4.946 C 22.104 4.946 22.042 4.92 21.997 4.872 L 21.926 4.8 C 20.187 2.994 17.826 1.978 15.364 1.978 C 12.902 1.978 10.541 2.994 8.802 4.8 C 5.177 8.565 5.177 14.66 8.802 18.425 C 9.351 18.997 9.932 19.537 10.543 20.043 C 10.584 20.079 10.627 20.112 10.673 20.14 C 10.72 20.169 10.773 20.183 10.827 20.182 C 10.881 20.178 10.932 20.157 10.975 20.123 C 11.018 20.089 11.058 20.052 11.095 20.011 L 13.705 17.304 C 13.763 17.243 13.804 17.195 13.829 17.159 C 13.869 17.107 13.891 17.043 13.891 16.978 C 13.885 16.912 13.858 16.85 13.815 16.802 C 13.773 16.754 13.727 16.709 13.678 16.668 C 13.103 16.165 12.55 15.638 12.018 15.086 C 9.39 12.356 9.39 7.938 12.018 5.208 C 13.279 3.898 14.991 3.162 16.776 3.162 C 18.561 3.162 20.273 3.898 21.534 5.208 L 21.604 5.28 C 21.699 5.378 21.699 5.538 21.604 5.636 C 21.558 5.683 21.497 5.71 21.432 5.71 C 21.368 5.71 21.306 5.683 21.261 5.636 L 21.192 5.564 C 20.182 4.515 18.811 3.926 17.382 3.926 C 15.952 3.926 14.581 4.515 13.572 5.564 C 11.468 7.75 11.468 11.289 13.572 13.475 C 14.117 14.041 14.68 14.589 15.261 15.118 C 15.315 15.167 15.358 15.202 15.392 15.223 C 15.445 15.258 15.499 15.275 15.548 15.273 C 15.596 15.273 15.649 15.253 15.704 15.214 C 15.749 15.179 15.791 15.14 15.829 15.098 L 17.989 12.856 C 18.032 12.813 18.072 12.766 18.109 12.716 C 18.147 12.666 18.169 12.606 18.171 12.542 C 18.167 12.478 18.143 12.417 18.103 12.368 C 18.064 12.319 18.022 12.274 17.976 12.232 C 17.418 11.701 16.872 11.158 16.337 10.603 C 15.105 9.323 15.105 7.251 16.337 5.971 C 16.928 5.357 17.731 5.012 18.568 5.012 C 19.405 5.012 20.207 5.357 20.799 5.971 C 21.117 6.3 21.426 6.638 21.73 6.984 C 22.209 7.533 23.026 7.574 23.554 7.076 C 24.057 6.602 24.121 5.806 23.702 5.251 C 19.163 -0.724 10.817 -1.751 5.059 2.959 C -0.699 7.667 -1.689 16.332 2.848 22.309 C 3.662 23.383 4.626 24.324 5.707 25.103 C 5.821 25.184 5.913 25.222 5.985 25.216 C 6.056 25.21 6.141 25.155 6.239 25.053 L 8.892 22.298 C 8.939 22.252 8.983 22.202 9.022 22.148 C 9.063 22.095 9.085 22.028 9.085 21.96 C 9.076 21.893 9.046 21.83 8.998 21.783 C 8.953 21.736 8.905 21.692 8.853 21.653 C 8.262 21.177 7.701 20.664 7.172 20.115 Z M 40.087 11.935 C 39.567 15.396 37.359 17.177 33.517 17.177 C 29.673 17.177 26.823 14.456 26.823 10.179 C 26.823 5.902 29.55 3.181 33.517 3.181 C 37.26 3.181 39.815 5.496 40.062 8.398 L 37.708 8.398 C 37.436 6.284 35.799 5.216 33.517 5.216 C 30.838 5.216 29.054 7.052 29.054 10.179 C 29.054 13.307 30.838 15.141 33.517 15.141 C 35.997 15.141 37.212 14.251 37.732 11.935 Z M 55.014 10.179 C 55.014 14.632 52.115 17.177 48.319 17.177 C 44.525 17.177 41.625 14.632 41.625 10.179 C 41.625 5.725 44.525 3.181 48.319 3.181 C 52.115 3.181 55.014 5.725 55.014 10.179 Z M 43.854 10.179 C 43.854 13.311 45.638 15.141 48.317 15.141 C 50.996 15.141 52.779 13.311 52.779 10.179 C 52.779 7.048 50.995 5.216 48.317 5.216 C 45.638 5.216 43.854 7.052 43.854 10.179 Z M 76.479 8.398 L 76.479 16.795 L 74.248 16.795 L 74.248 8.652 C 74.248 6.386 73.131 5.216 71.025 5.216 C 69.116 5.216 67.677 6.539 67.677 9.289 L 67.677 16.795 L 65.446 16.795 L 65.446 8.652 C 65.446 6.386 64.33 5.216 62.224 5.216 C 60.315 5.216 58.876 6.539 58.876 9.289 L 58.876 16.795 L 56.644 16.795 L 56.644 3.564 L 58.876 3.564 L 58.876 5.041 C 58.876 5.168 58.924 5.218 59.047 5.218 C 59.172 5.218 59.295 5.041 59.319 4.963 C 60.087 3.769 61.303 3.182 62.963 3.182 C 64.923 3.182 66.31 4.048 67.03 5.497 C 67.106 5.624 67.178 5.727 67.278 5.727 C 67.402 5.727 67.477 5.624 67.574 5.447 C 68.293 3.945 69.706 3.182 71.764 3.182 C 74.715 3.182 76.475 5.169 76.475 8.399 L 76.479 8.399 Z M 91.115 12.597 C 90.818 13.893 90.171 14.965 89.206 15.855 C 88.215 16.747 86.775 17.177 84.917 17.177 C 80.825 17.177 78.099 14.452 78.099 10.179 C 78.099 5.905 80.701 3.181 84.668 3.181 C 88.635 3.181 91.09 6.005 91.09 9.288 L 91.114 10.815 L 80.454 10.815 C 80.625 13.462 82.264 15.141 84.916 15.141 C 87.072 15.141 88.339 14.3 88.759 12.596 L 91.115 12.596 Z M 80.478 8.907 L 88.611 8.907 C 88.611 6.591 87.148 5.216 84.669 5.216 C 82.361 5.216 80.802 6.539 80.478 8.907 Z M 96.645 14.76 C 96.521 14.76 96.445 14.735 96.373 14.658 C 96.302 14.585 96.266 14.483 96.273 14.379 L 96.273 5.599 L 99.372 5.599 L 99.372 3.566 L 96.273 3.566 L 96.273 0 L 94.042 0 L 94.042 3.564 L 91.067 3.564 L 91.067 5.595 L 95.94 5.595 C 95.732 5.595 95.329 6.03 95.196 6.179 C 94.817 6.602 94.472 7.105 94.27 7.659 C 94.038 8.288 94.066 8.922 94.042 9.578 L 94.042 11.615 L 94.042 11.604 L 94.042 12.473 C 94.042 14.863 95.929 16.8 98.257 16.8 L 100.116 16.8 L 100.116 14.764 L 96.645 14.764 Z" fill="var(--token-8740f4aa-bb38-489d-9272-2825d8190d51, rgb(9, 23, 23)) /* {&quot;name&quot;:&quot;Offblack&quot;} */"></path></svg>